# xmcd
#
# Track frame offsets:
#	150
#	18637
#	31992
#	47567
#	62232
#	78055
#	93552
#	105300
#	121712
#	132450
#	150835
#	164337
#
# Disc length: 2374 seconds
#
# Revision: 0
# Processed by: cddbd v1.5.2PL0 Copyright (c) Steve Scherf et al.
# Submitted via: EasyCDDAExtractor 10.0.3.1
#
DISCID=8809440c
DTITLE=Anamma - Cornelis Anamma
DYEAR=1900
DGENRE=
TTITLE0=Skyddsrumsboogie
TTITLE1=Ågren
TTITLE2=Deirdres samba
TTITLE3=Lasse liten blues
TTITLE4=Blues för Fatumeh
TTITLE5=Visa till dej
TTITLE6=Somliga går med trasiga skor
TTITLE7=Alice's snaps
TTITLE8=Mördaranders
TTITLE9=Dekadans
TTITLE10=Tomtebloss
TTITLE11=Cool Water - På Den Gyldene Freden
EXTD=
EXTT0=
EXTT1=
EXTT2=
EXTT3=
EXTT4=
EXTT5=
EXTT6=
EXTT7=
EXTT8=
EXTT9=
EXTT10=
EXTT11=
PLAYORDER=
